<svg width="467" height="327" viewBox="0 0 467 327" fill="none" xmlns="http://www.w3.org/2000/svg">
<g filter="url(#filter0_d)">
<path fill-rule="evenodd" clip-rule="evenodd" d="M14 31.8012H182V221.615H14V31.8012Z" fill="#4AF6CD"/>
</g>
<path d="M74.22 186.087C74.22 182.927 74.68 180.147 75.6 177.747C76.52 175.307 77.9 173.127 79.74 171.207L85.62 176.187C83.34 179.067 82.2 182.087 82.2 185.247C82.2 186.887 82.52 188.147 83.16 189.027C83.76 189.867 84.62 190.287 85.74 190.287C86.54 190.287 87.2 190.067 87.72 189.627C88.24 189.187 88.74 188.447 89.22 187.407C89.7 186.367 90.3 184.727 91.02 182.487C92.38 178.207 94.1 175.087 96.18 173.127C98.22 171.127 101.06 170.127 104.7 170.127C107.34 170.127 109.68 170.807 111.72 172.167C113.72 173.527 115.28 175.507 116.4 178.107C117.52 180.667 118.08 183.687 118.08 187.167C118.08 193.807 116.06 199.227 112.02 203.427L105.96 197.967C108.68 194.647 110.04 191.187 110.04 187.587C110.04 185.707 109.64 184.247 108.84 183.207C108 182.167 106.9 181.647 105.54 181.647C104.58 181.647 103.8 181.847 103.2 182.247C102.56 182.647 102 183.367 101.52 184.407C101 185.407 100.44 186.887 99.84 188.847C98.36 193.567 96.58 196.887 94.5 198.807C92.42 200.727 89.8 201.687 86.64 201.687C84.16 201.687 81.98 201.027 80.1 199.707C78.22 198.347 76.78 196.487 75.78 194.127C74.74 191.727 74.22 189.047 74.22 186.087ZM103.02 132.682C105.9 132.682 108.48 133.322 110.76 134.602C113.04 135.842 114.84 137.722 116.16 140.242C117.44 142.762 118.08 145.842 118.08 149.482C118.08 155.002 116.74 159.182 114.06 162.022C111.34 164.862 107.66 166.282 103.02 166.282H75.3V155.182H102.66C105.18 155.182 107.04 154.742 108.24 153.862C109.4 152.942 109.98 151.482 109.98 149.482C109.98 147.482 109.38 146.042 108.18 145.162C106.98 144.282 105.14 143.842 102.66 143.842H75.3V132.682H103.02ZM101.64 112.674V115.734H117V126.834H75.3V112.374C75.3 106.494 76.36 102.114 78.48 99.2344C80.6 96.3144 83.86 94.8544 88.26 94.8544C90.9 94.8544 93.1 95.4744 94.86 96.7144C96.62 97.9144 98.2 99.8544 99.6 102.534L117 92.1544V104.514L101.64 112.674ZM94.08 115.734V112.014C94.08 108.174 92.14 106.254 88.26 106.254C86.46 106.254 85.14 106.794 84.3 107.874C83.46 108.914 83.04 110.494 83.04 112.614V115.734H94.08ZM117 89.6273H75.3L75.3 64.0073L83.16 65.1473V78.5273H93.18V66.7673H101.04V78.5273H117V89.6273Z" fill="white"/>
<g filter="url(#filter1_d)">
<path d="M74.22 297.92C74.22 292.36 75.98 287.58 79.5 283.58L85.2 289.04C84.12 290.56 83.34 291.94 82.86 293.18C82.34 294.38 82.08 295.76 82.08 297.32C82.08 300.32 83.24 302.68 85.56 304.4C87.88 306.08 91.42 306.92 96.18 306.92C99.66 306.92 102.42 306.64 104.46 306.08C106.46 305.52 107.9 304.68 108.78 303.56C109.66 302.4 110.1 300.92 110.1 299.12C110.1 297.32 109.72 295.68 108.96 294.2H100.38V298.94L92.76 300.02V283.46H113.52C114.96 285.62 116.08 288.06 116.88 290.78C117.68 293.5 118.08 296.18 118.08 298.82C118.08 311.86 110.76 318.38 96.12 318.38C91.56 318.38 87.64 317.5 84.36 315.74C81.04 313.94 78.52 311.5 76.8 308.42C75.08 305.34 74.22 301.84 74.22 297.92ZM74.22 260.335C74.22 254.295 76.14 249.595 79.98 246.235C83.82 242.875 89.2 241.195 96.12 241.195C100.64 241.195 104.56 241.955 107.88 243.475C111.16 244.955 113.68 247.135 115.44 250.015C117.2 252.895 118.08 256.335 118.08 260.335C118.08 266.375 116.16 271.075 112.32 274.435C108.48 277.755 103.08 279.415 96.12 279.415C91.6 279.415 87.7 278.675 84.42 277.195C81.14 275.675 78.62 273.495 76.86 270.655C75.1 267.775 74.22 264.335 74.22 260.335ZM82.2 260.335C82.2 262.935 83.28 264.855 85.44 266.095C87.6 267.295 91.16 267.895 96.12 267.895C101.08 267.895 104.66 267.275 106.86 266.035C109.02 264.795 110.1 262.895 110.1 260.335C110.1 257.695 109.02 255.775 106.86 254.575C104.7 253.375 101.12 252.775 96.12 252.775C91.16 252.775 87.6 253.375 85.44 254.575C83.28 255.775 82.2 257.695 82.2 260.335Z" fill="white"/>
</g>
<rect x="97" y="231.553" width="19.8758" height="1" transform="rotate(-90 97 231.553)" fill="white"/>
<defs>
<filter id="filter0_d" x="10" y="31.8012" width="176" height="197.814" filterUnits="userSpaceOnUse" color-interpolation-filters="sRGB">
<feFlood flood-opacity="0" result="BackgroundImageFix"/>
<feColorMatrix in="SourceAlpha" type="matrix" values="0 0 0 0 0 0 0 0 0 0 0 0 0 0 0 0 0 0 127 0"/>
<feOffset dy="4"/>
<feGaussianBlur stdDeviation="2"/>
<feColorMatrix type="matrix" values="0 0 0 0 0 0 0 0 0 0 0 0 0 0 0 0 0 0 0.25 0"/>
<feBlend mode="normal" in2="BackgroundImageFix" result="effect1_dropShadow"/>
<feBlend mode="normal" in="SourceGraphic" in2="effect1_dropShadow" result="shape"/>
</filter>
<filter id="filter1_d" x="70.22" y="241.195" width="51.86" height="85.1848" filterUnits="userSpaceOnUse" color-interpolation-filters="sRGB">
<feFlood flood-opacity="0" result="BackgroundImageFix"/>
<feColorMatrix in="SourceAlpha" type="matrix" values="0 0 0 0 0 0 0 0 0 0 0 0 0 0 0 0 0 0 127 0"/>
<feOffset dy="4"/>
<feGaussianBlur stdDeviation="2"/>
<feColorMatrix type="matrix" values="0 0 0 0 0 0 0 0 0 0 0 0 0 0 0 0 0 0 0.25 0"/>
<feBlend mode="normal" in2="BackgroundImageFix" result="effect1_dropShadow"/>
<feBlend mode="normal" in="SourceGraphic" in2="effect1_dropShadow" result="shape"/>
</filter>
</defs>
</svg>
